# xmcd
#
# Track frame offsets:
#	150
#	17861
#	34486
#	52517
#	70589
#	85109
#	102224
#	118647
#	133425
#	148325
#	165226
#	183799
#	199488
#
# Disc length: 2914 seconds
#
# Revision: 1
# Processed by: cddbd v1.5.2PL0 Copyright (c) Steve Scherf et al.
# Submitted via: EasyCDDAExtractor 11.0.0.1
#
DISCID=b20b600d
DTITLE=ΔΙΟΝΥΣΙΟΥ ΣΤΕΛΙΟΣ - ΟΤΙ ΑΙΣΘΑΝΟΜΑΙ
DYEAR=2001
DGENRE=ΛΑΪΚΑ
TTITLE0=To synnefo
TTITLE1=Yaloka8aristires
TTITLE2=Simera
TTITLE3=Edw kai 2 nyxtes
TTITLE4=Tsigaro 
TTITLE5=3exases mana na mou ma8eis
TTITLE6=Den teleiwnei mia zwi
TTITLE7=Opa
TTITLE8=Magas 8a sai
TTITLE9=Kapoies fores
TTITLE10=Oti ais8anomai
TTITLE11=Panw orofos
TTITLE12=Kalinyxta
EXTD=
EXTT0=
EXTT1=
EXTT2=
EXTT3=
EXTT4=
EXTT5=
EXTT6=
EXTT7=
EXTT8=
EXTT9=
EXTT10=
EXTT11=
EXTT12=
PLAYORDER=
